# xmcd
#
# Track frame offsets: 
#        182
#        18225
#        32382
#        47242
#        59432
#        72587
#        86870
#        103090
#        111710
#        130692
#        152117
#
# Disc length: 2190 seconds
#
# Revision: 1
# Processed by: cddbd v1.5.2PL0 Copyright (c) Steve Scherf et al.
# Submitted via: ExactAudioCopy v0.95b4
#
DISCID=9a088c0b
DTITLE=Tetvocal - Tetvocal
DYEAR=1900
DGENRE=A Capella
TTITLE0=Perdidamente
TTITLE1=Rua do Capelão
TTITLE2=Sonho Azul
TTITLE3=Camisa Amarela
TTITLE4=Noites da Madeira
TTITLE5=Cantores do Rádio
TTITLE6=Deixa-me Rir
TTITLE7=Chico Fininho
TTITLE8=Porto Sentido
TTITLE9=Canoas do Tejo
TTITLE10=Queda do Império
EXTD=
EXTT0=
EXTT1=
EXTT2=
EXTT3=
EXTT4=
EXTT5=
EXTT6=
EXTT7=
EXTT8=
EXTT9=
EXTT10=
PLAYORDER=
